<svg width="24" height="24" viewBox="0 0 24 24" fill="none" xmlns="http://www.w3.org/2000/svg">
<g clip-path="url(#clip0_83_1765)">
<path d="M6.37318 23.1054C6.40687 23.2749 6.63957 23.2749 6.67325 23.1054C7.28156 20.0721 9.66999 17.6805 12.7033 17.0754C12.8727 17.0417 12.8727 16.809 12.7033 16.7753C9.66999 16.167 7.2784 13.7786 6.67325 10.7452C6.63957 10.5758 6.40686 10.5758 6.37318 10.7452C5.76487 13.7786 3.37644 16.1701 0.343123 16.7753C0.173691 16.809 0.173691 17.0417 0.343123 17.0754C3.37644 17.6837 5.76803 20.0721 6.37318 23.1054Z" fill="white"/>
<path d="M8.21344 4.74148C10.0792 5.11505 11.5501 6.58583 11.9235 8.45155C11.9439 8.55566 12.0878 8.55566 12.1093 8.45155C12.4828 6.58578 13.9536 5.11487 15.8193 4.74148C15.9234 4.72107 15.9234 4.57716 15.8193 4.55572C13.9536 4.18216 12.4827 2.71138 12.1093 0.84566C12.0889 0.741551 11.9449 0.741551 11.9235 0.84566C11.5499 2.71143 10.0792 4.18234 8.21344 4.55572C8.10933 4.57614 8.10933 4.72005 8.21344 4.74148Z" fill="white"/>
<path d="M23.6837 12.0758C21.28 11.5951 19.3857 9.70072 18.9049 7.29706C18.8784 7.16335 18.6937 7.16335 18.6671 7.29706C18.1864 9.70072 16.292 11.595 13.8884 12.0758C13.7547 12.1023 13.7547 12.2871 13.8884 12.3136C16.292 12.7943 18.1863 14.6887 18.6671 17.0924C18.6937 17.2281 18.8784 17.2281 18.9049 17.0924C19.3857 14.6887 21.28 12.7944 23.6837 12.3136C23.8174 12.2871 23.8174 12.1023 23.6837 12.0758Z" fill="white"/>
</g>
<defs>
<clipPath id="clip0_83_1765">
<rect width="24" height="24" fill="white"/>
</clipPath>
</defs>
</svg>
