<svg width="512" height="512" viewBox="0 0 512 512" fill="none" xmlns="http://www.w3.org/2000/svg">
<path d="M256 135.424C266.511 135.424 275.038 143.951 275.038 154.462V236.96H357.536C368.047 236.96 376.574 245.487 376.574 255.998C376.574 266.508 368.047 275.036 357.536 275.036H275.038V357.534C275.038 368.044 266.511 376.572 256 376.572C245.49 376.572 236.962 368.044 236.962 357.534V275.036H154.464C143.954 275.036 135.426 266.508 135.426 255.998C135.426 245.487 143.954 236.96 154.464 236.96H236.962V154.462C236.962 143.951 245.49 135.424 256 135.424Z" fill="#3559E0"/>
<path fill-rule="evenodd" clip-rule="evenodd" d="M408.304 8.50586C460.857 8.50586 503.494 51.1434 503.494 103.696V408.304C503.494 460.857 460.857 503.494 408.304 503.494H103.696C51.1434 503.494 8.50586 460.857 8.50586 408.304V103.696C8.50586 51.1434 51.1434 8.50586 103.696 8.50586H408.304ZM103.696 46.5819C72.1639 46.5819 46.5819 72.1639 46.5819 103.696V408.304C46.5819 439.836 72.1639 465.418 103.696 465.418H408.304C439.836 465.418 465.418 439.836 465.418 408.304V103.696C465.418 72.1639 439.836 46.5819 408.304 46.5819H103.696Z" fill="#3559E0"/>
</svg>
