<svg width="512" height="512" viewBox="0 0 512 512" fill="none" xmlns="http://www.w3.org/2000/svg">
<path d="M259.169 6.8125C248.663 6.8125 240.147 15.3277 240.147 25.8344V327.649C240.147 338.156 248.663 346.671 259.169 346.671C269.676 346.671 278.191 338.156 278.191 327.649V25.8344C278.191 15.3277 269.676 6.8125 259.169 6.8125Z" fill="#3559E0"/>
<path d="M377.41 110.209L272.156 11.9294C264.845 5.10688 253.502 5.10688 246.191 11.9294L140.935 110.209C133.257 117.38 132.839 129.415 140.01 137.093C143.75 141.107 148.829 143.136 153.914 143.136C158.568 143.136 163.229 141.443 166.894 138.019L259.169 51.8558L351.444 138.019C359.135 145.19 371.163 144.771 378.328 137.093C385.494 129.415 385.088 117.38 377.41 110.209Z" fill="#3559E0"/>
<path d="M449.389 169.133H347.939C337.432 169.133 328.917 177.648 328.917 188.155C328.917 198.661 337.432 207.177 347.939 207.177H430.367V467.143H81.6318V207.177H164.06C174.567 207.177 183.082 198.661 183.082 188.155C183.082 177.648 174.567 169.133 164.06 169.133H62.6098C52.1031 169.133 43.5879 177.648 43.5879 188.155V486.165C43.5879 496.672 52.1031 505.187 62.6098 505.187H449.389C459.896 505.187 468.411 496.672 468.411 486.165V188.155C468.411 177.649 459.896 169.133 449.389 169.133Z" fill="#3559E0"/>
</svg>
